<svg width="48" height="48" fill="none" xmlns="http://www.w3.org/2000/svg"><rect width="48" height="48" rx="16" fill="#5865F2"/><path d="M35.09 13.834a26.388 26.388 0 00-6.514-2.02.099.099 0 00-.105.05c-.281.5-.593 1.153-.81 1.666a24.363 24.363 0 00-7.317 0 16.862 16.862 0 00-.823-1.666.103.103 0 00-.105-.05 26.312 26.312 0 00-6.513 2.02.093.093 0 00-.043.037C8.71 20.07 7.575 26.114 8.132 32.085a.11.11 0 00.042.075 26.534 26.534 0 007.99 4.04.103.103 0 00.113-.038 18.955 18.955 0 001.634-2.659.101.101 0 00-.055-.14c-.87-.33-1.7-.733-2.496-1.19a.103.103 0 01-.01-.17c.167-.126.335-.257.495-.39a.099.099 0 01.104-.013c5.237 2.391 10.906 2.391 16.082 0a.099.099 0 01.104.013c.16.132.328.264.497.39a.103.103 0 01-.008.17 16.39 16.39 0 01-2.498 1.188.102.102 0 00-.054.142c.48.931 1.029 1.817 1.633 2.658.025.036.07.05.113.038a26.447 26.447 0 008.003-4.04.102.102 0 00.041-.073c.667-6.902-1.117-12.898-4.731-18.213a.082.082 0 00-.042-.039z" fill="#fff"/><path d="M15.817 25.224c0 1.778 1.3 3.226 2.876 3.226 1.602 0 2.876-1.448 2.876-3.226C21.594 23.46 20.308 22 18.693 22c-1.602 0-2.876 1.448-2.876 3.225zm10.633 0c0 1.778 1.3 3.226 2.876 3.226 1.615 0 2.876-1.448 2.876-3.226C32.227 23.46 30.941 22 29.326 22c-1.602 0-2.875 1.448-2.875 3.225z" fill="#5865F2"/></svg>