<svg width="395" height="159" fill="none" xmlns="http://www.w3.org/2000/svg"><path d="M355 23H240.333C224.133 23 211 36.133 211 52.333 211 72.583 194.584 89 174.333 89H85.5C66.446 89 51 104.446 51 123.5c0 19.054 15.446 34.5 34.5 34.5h192v-44.5H355c22.091 0 40-17.909 40-40V63c0-22.091-17.909-40-40-40z" fill="#3E4148"/><path d="M112 49.5c0-14.636 11.864-26.5 26.5-26.5h33c14.636 0 26.5 11.864 26.5 26.5 0 14.635-11.864 26.5-26.5 26.5h-33C123.864 76 112 64.135 112 49.5z" fill="#3E4148"/><path d="M330 16.5V2l-12.5 14L305 2l-11 14-12.5-14v31.5" stroke="#202225"/><path d="M287 22l-5.5 5.5L276 22l5.5-5.5L287 22zm48.5 0l-5.5-5.5-5.5 5.5 5.5 5.5 5.5-5.5zm-36 0l5.5 5.5 5.5-5.5-5.5-5.5-5.5 5.5zM252 112h12v12h-12a6 6 0 110-12zm-1.5 31.9V137a7.5 7.5 0 017.5-7.5h14V158h-34.75a5.25 5.25 0 010-10.5h9.65a3.6 3.6 0 003.6-3.6z" fill="#4F545C" stroke="#202225"/><path d="M257 131v11c0 8.837 7.163 16 16 16h57.5c11.046 0 20-8.954 20-20v-19c0-11.046-8.954-20-20-20H289c-17.673 0-32 14.327-32 32zm82-97.5h-67c-9.941 0-18 8.059-18 18V81c0 9.941 8.059 18 18 18h67c8.837 0 16-7.163 16-16V49.5c0-8.837-7.163-16-16-16z" fill="#72767D" stroke="#202225"/><path d="M262 51.5h32.5a8 8 0 018 8v8c0 8.837-7.163 16-16 16H270c-8.837 0-16-7.163-16-16v-8a8 8 0 018-8z" fill="#72767D"/><path d="M255 51.5h32.5a8 8 0 018 8v8c0 8.837-7.163 16-16 16H263c-8.837 0-16-7.163-16-16v-8a8 8 0 018-8z" fill="#B9BBBE"/><path d="M358 140c2-11 7-27.846 18.5-19 6.5 5 5.5 16-18.5 19z" fill="#72767D" stroke="#202225"/><circle cx="315" cy="62.5" r="4" fill="#202225"/><path d="M324.5 56.5c-1.667-.5-5.3-2.2-6.5-5" stroke="#202225" stroke-linecap="round"/><path d="M311.5 105v-6H331c11.046 0 20 8.954 20 20v19c0 11.046-8.954 20-20 20h-44v-2.5a8 8 0 018-8h9.6a3.9 3.9 0 003.9-3.9v-2.8c0-7.069 5.731-12.8 12.8-12.8h.95a2.25 2.25 0 100-4.5H291a4 4 0 01-4-4V117a4 4 0 014-4h12.5a8 8 0 008-8z" fill="#4F545C" stroke="#202225"/><path d="M355 45.5h-16v33h16a8 8 0 008-8v-17a8 8 0 00-8-8z" fill="#72767D"/><path d="M339 46h16a8 8 0 018 8v17a8 8 0 01-8 8h-16" stroke="#202225"/><rect x="253" y="70.5" width="12" height="6" rx="3" fill="#4F545C"/><rect x="269" y="70.5" width="12" height="6" rx="3" fill="#4F545C"/><path d="M272.5 51.5h-18a8 8 0 00-8 8v8c0 8.837 7.163 16 16 16H286c8.837 0 16-7.163 16-16v-8a8 8 0 00-8-8h-10.5" stroke="#202225" stroke-linecap="round"/><path d="M349 51.5h-2a2 2 0 00-2 2v17a2 2 0 002 2h2a8 8 0 008-8v-5a8 8 0 00-8-8z" fill="#4F545C"/><path d="M156.5 133a3.5 3.5 0 013.5-3.5h6a3.5 3.5 0 013.5 3.5v7a1.5 1.5 0 01-1.5 1.5h-10a1.5 1.5 0 01-1.5-1.5v-7zm22-5a3.5 3.5 0 013.5-3.5h10a3.5 3.5 0 013.5 3.5v10a3.5 3.5 0 01-3.5 3.5h-10a3.5 3.5 0 01-3.5-3.5v-10z" fill="#72767D" stroke="#202225"/><path d="M196.5 114a3.5 3.5 0 117 0 3.5 3.5 0 01-7 0zM12 155a3.5 3.5 0 117 0v1a1.5 1.5 0 01-1.5 1.5h-4A1.5 1.5 0 0112 156v-1zm-12 1.5h8" stroke="#202225"/><path fill="#202225" d="M65 158h315v1H65z"/><path d="M147.5 143a1.5 1.5 0 011.5-1.5h53a1.5 1.5 0 011.5 1.5v4a1.5 1.5 0 01-1.5 1.5h-53a1.5 1.5 0 01-1.5-1.5v-4z" fill="#3E4148" stroke="#202225"/><path d="M151.5 148.5h7v8.5a1.5 1.5 0 01-1.5 1.5h-4a1.5 1.5 0 01-1.5-1.5v-8.5zm42 0h7v8.5a1.5 1.5 0 01-1.5 1.5h-4a1.5 1.5 0 01-1.5-1.5v-8.5zM97 144.1v5.9a8 8 0 008 8h16.5a4 4 0 004-4v-1.5a4 4 0 00-4-4H116v-.6c0-6.296-5.104-11.4-11.4-11.4a7.6 7.6 0 00-7.6 7.6z" fill="#4F545C" stroke="#202225"/><path d="M68 136.5c-.8-13.2 6.333-21.5 10-24l40 12V142c0 8.837-7.163 16-16 16H72a4 4 0 01-4-4v-17.5z" fill="#3E4148" stroke="#202225"/><path d="M64 144.1v5.9a8 8 0 008 8h16.5a4 4 0 004-4v-1.5a4 4 0 00-4-4H83v-.6c0-6.296-5.104-11.4-11.4-11.4a7.6 7.6 0 00-7.6 7.6z" fill="#4F545C" stroke="#202225"/><path d="M109.5 142.5L104 148m0-5.5l5.5 5.5" stroke="#202225"/><path d="M85 127.5c0 1.246-.323 2.461-.925 3.477-.602 1.016-1.452 1.781-2.433 2.19a4.207 4.207 0 01-3.041.093c-.997-.348-1.879-1.061-2.523-2.038-.644-.978-1.019-2.172-1.072-3.417a6.94 6.94 0 01.777-3.529c.558-1.051 1.375-1.867 2.337-2.336a4.225 4.225 0 013.033-.278M127.5 81c-.8 4-4 3-5.5 2l-13.5-9 8.5-14v8l9-3.5.5 9L134 70l-5 9" stroke="#202225" stroke-linecap="round"/><path d="M123.921 81.283l-14.363-9.08c-8.368-5.29-19.347-3.662-25.82 3.828l-5.08 5.878c-9.742 11.273-6.965 28.607 5.812 36.273l9.722 5.833c12.377 7.427 28.462 2.326 34.299-10.875l3.035-6.865c4.007-9.064.772-19.696-7.605-24.992z" fill="#3E4148" stroke="#202225"/><circle cx="100" cy="94.5" r="5.5" stroke="#202225"/><path d="M135.221 109.875l-16.695-10.821a8.001 8.001 0 00-11.256 2.671l-1.822 3.113c-3.303 5.643-1.48 12.892 4.099 16.302l3.343 2.043c7.523 4.597 17.349 2.242 21.97-5.267l1.592-2.588a4 4 0 00-1.231-5.453z" fill="#3E4148" stroke="#202225"/><path d="M95.5 70.5l6 6-22 12-1-1c-4.694-4.694-4.694-12.306 0-17 4.694-4.694 12.306-4.694 17 0z" fill="#36393F"/><path d="M101.5 76.5l-6-6c-4.694-4.694-12.306-4.694-17 0v0c-4.694 4.694-4.694 12.306 0 17l1 1" stroke="#202225"/><path d="M83.227 85.944c-2.929-2.929-3.126-7.48-.44-10.166 2.685-2.686 7.237-2.488 10.166.44" stroke="#202225"/><path d="M38 142c.5 1.5 2.5 4 6.5 2 .833 1.167 3.1 3 5.5 1v3.5l-17 10m0 0c-3.667 0-10-2.4-6-12m6 12c2.8-8.8-2.834-11.667-6-12m0 0l7.5-4" stroke="#202225" stroke-linecap="round"/><path d="M51.5 148H50a5.5 5.5 0 00-5.5 5.5v1.3a1.7 1.7 0 001.7 1.7h9.3a2 2 0 002-2v-.5a1.5 1.5 0 00-1.5-1.5 1.5 1.5 0 01-1.5-1.5 3 3 0 00-3-3z" fill="#36393F" stroke="#202225" stroke-linecap="round"/></svg>