<svg width="14" height="14" fill="none" xmlns="http://www.w3.org/2000/svg"><path d="M9 7a2 2 0 11-4 0 2 2 0 014 0z" stroke="#B9BBBE" stroke-linecap="round" stroke-linejoin="round"/><path d="M7.603 1.04C7.466 1 7.311 1 7 1c-.31 0-.466 0-.603.04a1 1 0 00-.507.343c-.088.113-.146.257-.261.545a.843.843 0 01-1.05.487l-.38-.126c-.27-.09-.405-.135-.538-.143a1 1 0 00-.556.131c-.115.066-.216.167-.417.368-.214.214-.32.32-.389.443a1 1 0 00-.12.589c.014.139.07.28.182.56a.965.965 0 01-.4 1.186l-.184.11c-.283.17-.425.256-.528.373a1 1 0 00-.202.356C1 6.41 1 6.577 1 6.911c0 .395 0 .592.063.762a1 1 0 00.264.39c.134.121.316.194.679.34.37.148.562.56.436.939l-.144.43c-.1.298-.149.447-.153.594a1 1 0 00.119.505c.07.13.18.24.403.462.222.223.333.334.462.403a1 1 0 00.505.12c.147-.005.296-.055.594-.154l.351-.117a.843.843 0 011.05.486c.115.289.173.433.26.546a1 1 0 00.508.343c.137.04.292.04.603.04.31 0 .466 0 .603-.04a1 1 0 00.507-.343c.088-.113.146-.257.261-.546a.843.843 0 011.05-.486l.351.117c.298.1.447.149.594.153a1 1 0 00.505-.119c.129-.07.24-.18.462-.403.222-.222.333-.333.403-.462a1 1 0 00.12-.505c-.005-.147-.055-.296-.154-.594l-.144-.43a.755.755 0 01.436-.94c.363-.145.545-.218.678-.339a1 1 0 00.265-.39C13 7.503 13 7.306 13 6.91c0-.334 0-.5-.047-.649a1 1 0 00-.202-.356c-.103-.117-.244-.202-.528-.372l-.185-.111a.965.965 0 01-.4-1.186c.113-.28.169-.421.183-.56a1 1 0 00-.12-.59c-.069-.121-.175-.228-.39-.442-.2-.201-.301-.302-.416-.368a1 1 0 00-.557-.131c-.132.008-.267.053-.537.142l-.38.127a.843.843 0 01-1.05-.487c-.115-.288-.173-.432-.26-.545a1 1 0 00-.508-.343z" stroke="#B9BBBE" stroke-linecap="round" stroke-linejoin="round"/></svg>