<svg width="32" height="32" fill="none" xmlns="http://www.w3.org/2000/svg"><rect width="32" height="32" rx="16" fill="#757E8A"/><path d="M21.545 10.917a13.194 13.194 0 00-3.257-1.01.05.05 0 00-.052.025c-.141.25-.297.576-.406.833a12.182 12.182 0 00-3.658 0 8.421 8.421 0 00-.412-.833.051.051 0 00-.052-.025 13.156 13.156 0 00-3.257 1.01.047.047 0 00-.021.019c-2.074 3.098-2.643 6.121-2.364 9.107a.06.06 0 00.02.037 13.267 13.267 0 003.996 2.02.052.052 0 00.056-.019c.308-.42.582-.863.818-1.33a.05.05 0 00-.028-.07 8.74 8.74 0 01-1.248-.595.051.051 0 01-.005-.085c.084-.063.167-.128.248-.194a.05.05 0 01.051-.007c2.619 1.195 5.454 1.195 8.041 0a.05.05 0 01.053.006c.08.066.164.132.248.195a.051.051 0 01-.004.085c-.399.233-.813.43-1.249.595a.051.051 0 00-.027.07c.24.466.514.91.817 1.33a.05.05 0 00.056.018 13.224 13.224 0 004.001-2.019.052.052 0 00.021-.037c.334-3.451-.559-6.45-2.366-9.107a.041.041 0 00-.02-.019z" fill="#fff"/><path d="M11.909 16.612c0 .889.65 1.613 1.438 1.613.8 0 1.438-.724 1.438-1.613.012-.882-.631-1.612-1.438-1.612-.801 0-1.438.723-1.438 1.612zm5.316 0c0 .889.65 1.613 1.438 1.613.807 0 1.438-.724 1.438-1.613.013-.882-.63-1.612-1.438-1.612-.8 0-1.438.723-1.438 1.612z" fill="#757E8A"/><rect x="21" y="21" width="10" height="10" rx="5" fill="#3BA55D" stroke="#292B2F" stroke-width="2"/></svg>