<svg width="14" height="14" fill="none" xmlns="http://www.w3.org/2000/svg"><path d="M12.5 11a.5.5 0 001 0h-1zm-12 0a.5.5 0 001 0h-1zm2.11 1.962l-.098.49.098-.49zM1.038 11.39l-.49.098.49-.098zm3.283 1.073l.49.098-.49-.098zm-.524.524l.097.49-.097-.49zm.172-4.581l-.227.445.227-.445zm.292.291l-.446.227.446-.227zm-2.897-.291l.227.445-.227-.445zm-.291.291l.445.227-.445-.227zm9.13 4.29l-.097.49.097-.49zm-.524-.524l-.49.098.49-.098zm3.283-1.073l.49.098-.49-.098zm-1.572 1.572l.098.49-.098-.49zm1.246-4.556l-.227.445.227-.445zm.291.291l-.445.227.445-.227zm-2.896-.291l.227.445-.227-.445zm-.292.291l.446.227-.446-.227zM12.5 7v4h1V7h-1zm-11 4V7h-1v4h1zM7 1.5A5.5 5.5 0 0112.5 7h1A6.5 6.5 0 007 .5v1zm0-1A6.5 6.5 0 00.5 7h1A5.5 5.5 0 017 1.5v-1zM2.067 8.833h1.2v-1h-1.2v1zm1.766.567v2.767h1V9.4h-1zM1.5 10.5V9.4h-1v1.1h1zm2 2c-.489 0-.66-.002-.793-.029l-.195.981c.254.05.547.048.988.048v-1zm-3-2c0 .44-.002.734.048.988l.98-.195c-.026-.133-.028-.304-.028-.793h-1zm2.207 1.971a1.5 1.5 0 01-1.178-1.178l-.981.195a2.5 2.5 0 001.964 1.964l.195-.98zm1.126-.304l-.001.165-.002.034.98.195c.026-.125.023-.263.023-.394h-1zM3.5 13.5c.13 0 .27.002.394-.022l-.195-.981-.034.002a5.625 5.625 0 01-.165.001v1zm.33-1.134a.167.167 0 01-.13.13l.194.982c.463-.092.825-.454.917-.917l-.98-.195zm-.563-3.533c.195 0 .31 0 .397.008.08.006.09.016.078.01l.454-.89a1.183 1.183 0 00-.45-.117c-.137-.011-.3-.01-.48-.01v1zm1.566.567c0-.178 0-.342-.01-.479a1.183 1.183 0 00-.117-.45l-.89.453c-.006-.01.003-.001.01.079.007.086.007.202.007.397h1zm-1.09-.549a.167.167 0 01.072.073l.891-.454a1.167 1.167 0 00-.51-.51l-.454.891zM2.066 7.833c-.179 0-.343 0-.479.011a1.183 1.183 0 00-.451.116l.454.891c-.01.006-.002-.004.079-.01.086-.007.202-.008.397-.008v-1zM1.5 9.4c0-.195 0-.311.007-.397.007-.08.017-.09.011-.079l-.89-.454a1.183 1.183 0 00-.117.451C.5 9.058.5 9.221.5 9.4h1zm-.363-1.44c-.22.112-.398.29-.51.51l.891.454a.167.167 0 01.073-.072l-.454-.892zm9.596.873h1.2v-1h-1.2v1zM12.5 9.4v1.1h1V9.4h-1zm-2.333 2.767V9.4h-1v2.767h1zm.333.333l-.165-.001-.034-.002-.195.98c.125.025.263.023.394.023v-1zm-1.333-.333c0 .13-.003.27.022.394l.98-.195c.002.005 0 0-.001-.034l-.001-.165h-1zm1.134.33a.167.167 0 01-.131-.131l-.98.195c.091.463.453.825.916.917l.195-.981zM12.5 10.5c0 .489-.002.66-.029.793l.981.195c.05-.254.048-.547.048-.988h-1zm-2 3c.44 0 .734.002.988-.048l-.195-.98c-.133.026-.304.028-.793.028v1zm1.971-2.207a1.5 1.5 0 01-1.178 1.178l.195.981a2.5 2.5 0 001.964-1.964l-.98-.195zm-.538-2.46c.195 0 .311 0 .398.008.08.006.089.016.078.01l.454-.89a1.183 1.183 0 00-.451-.117c-.136-.011-.3-.01-.479-.01v1zM13.5 9.4c0-.178 0-.342-.01-.479a1.183 1.183 0 00-.117-.45l-.891.453c-.006-.01.004-.001.01.079.008.086.008.202.008.397h1zm-1.091-.549a.166.166 0 01.073.073l.89-.454a1.166 1.166 0 00-.509-.51l-.454.891zm-1.676-1.018c-.178 0-.342 0-.478.011a1.183 1.183 0 00-.451.116l.454.891c-.011.006-.002-.004.078-.01.086-.007.202-.008.397-.008v-1zM10.167 9.4c0-.195 0-.311.007-.397.007-.08.016-.09.01-.079l-.89-.454a1.183 1.183 0 00-.117.451c-.01.137-.01.3-.01.479h1zm-.363-1.44c-.22.112-.398.29-.51.51l.89.454a.167.167 0 01.074-.072l-.454-.892z" fill="#B9BBBE"/></svg>