<svg width="24" height="24" fill="none" xmlns="http://www.w3.org/2000/svg"><path d="M4 14h2.675c.489 0 .733 0 .963.055.205.05.4.13.579.24.201.123.374.296.72.642l.126.126c.346.346.519.519.72.642.18.11.375.19.579.24.23.055.474.055.963.055h1.35c.489 0 .733 0 .963-.055.204-.05.4-.13.579-.24.201-.123.374-.296.72-.642l.126-.126c.346-.346.519-.519.72-.642.18-.11.374-.19.579-.24.23-.055.474-.055.964-.055H20M8.8 20h6.4c1.68 0 2.52 0 3.162-.327a3 3 0 001.311-1.311C20 17.72 20 16.88 20 15.2V8.8c0-1.68 0-2.52-.327-3.162a3 3 0 00-1.311-1.311C17.72 4 16.88 4 15.2 4H8.8c-1.68 0-2.52 0-3.162.327a3 3 0 00-1.311 1.311C4 6.28 4 7.12 4 8.8v6.4c0 1.68 0 2.52.327 3.162a3 3 0 001.311 1.311C6.28 20 7.12 20 8.8 20z" stroke="#B9BBBE" stroke-width="2" stroke-linecap="round" stroke-linejoin="round"/></svg>