<svg width="24" height="24" fill="none" xmlns="http://www.w3.org/2000/svg"><path d="M8.87 9.17a1 1 0 001.886.664L8.869 9.17zm5.312 1.082l-1-.002v.002h1zm-2.565 1.3a1 1 0 00.633 1.897l-.633-1.898zm.344 2.948a1 1 0 000 2v-2zm.01 2a1 1 0 100-2v2zM3.94 16l.895-.444L3.94 16zm-.935 5l-.924-.384A1 1 0 003.005 22v-1zm7.75-11.166c.099-.278.292-.513.546-.662l-1.013-1.724A3.248 3.248 0 008.869 9.17l1.887.664zm.546-.662c.254-.15.553-.204.844-.154l.338-1.971a3.248 3.248 0 00-2.195.4L11.3 9.173zm.844-.154c.29.05.554.2.743.426l1.53-1.288a3.249 3.249 0 00-1.935-1.11l-.338 1.972zm.743.426c.19.226.294.511.294.806l2 .003a3.248 3.248 0 00-.764-2.097l-1.53 1.288zm.294.808c0 .218-.177.52-.68.854a4.292 4.292 0 01-.878.443l-.01.003h.002l.317.948.317.948h.002a.05.05 0 00.004-.001l.01-.004.028-.01a4.587 4.587 0 00.397-.16 6.23 6.23 0 00.921-.503c.623-.415 1.57-1.238 1.57-2.518h-2zM11.96 16.5h.01v-2h-.01v2zm8.043-4.5a8 8 0 01-8 8v2c5.523 0 10-4.477 10-10h-2zm-16 0a8 8 0 018-8V2c-5.523 0-10 4.477-10 10h2zm8-8a8 8 0 018 8h2c0-5.523-4.477-10-10-10v2zM4.835 15.556A7.963 7.963 0 014.004 12h-2c0 1.595.374 3.105 1.04 4.446l1.791-.89zM12.004 20H3.005v2h9v-2zm-9 1l.924.384v-.001l.002-.003c0-.003.002-.006.004-.01A5.833 5.833 0 004 21.204a21.47 21.47 0 00.667-1.959 11.37 11.37 0 00.384-1.823c.062-.56.076-1.279-.216-1.866l-1.79.89c-.002-.002.005.012.014.049.009.036.017.088.023.158.01.141.006.325-.019.548a9.53 9.53 0 01-.318 1.496 19.463 19.463 0 01-.65 1.884l-.01.028-.003.006.923.385z" fill="#B9BBBE"/></svg>