<svg width="24" height="24" fill="none" xmlns="http://www.w3.org/2000/svg"><path d="M10 10a1 1 0 100 2v-2zm4 2a1 1 0 100-2v2zm-1-3a1 1 0 10-2 0h2zm-2 4a1 1 0 102 0h-2zm10 7l-.447.894A1 1 0 0022 20h-1zm-4.195-1.98l.139-.991-.139.99zm.87.318l-.447.894.448-.894zm-.51-.234l-.318.948.319-.948zM3.328 16.362l-.891.454.891-.454zm1.311 1.311l-.454.891.454-.891zM19.362 4.327l.454-.891-.454.891zm1.311 1.311l.891-.454-.891.454zM4.638 4.327l-.454-.891.454.891zM3.327 5.638l-.891-.454.891.454zM10 12h4v-2h-4v2zm1-3v4h2V9h-2zM7.8 5h8.4V3H7.8v2zM4 13.2V8.8H2v4.4h2zM16.245 17H7.8v2h8.445v-2zm5.202 2.106l-3.324-1.663-.895 1.79 3.325 1.661.894-1.788zM16.245 19c.308 0 .368.002.421.01l.278-1.981c-.223-.031-.444-.029-.7-.029v2zm1.878-1.557c-.228-.114-.425-.215-.639-.286l-.637 1.895c.05.017.106.042.381.18l.895-1.789zm-1.457 1.567a.994.994 0 01.18.042l.639-1.895a2.995 2.995 0 00-.541-.128l-.277 1.98zM2 13.2c0 .824 0 1.501.044 2.052.046.562.145 1.079.392 1.564l1.782-.908c-.08-.156-.145-.38-.18-.819C4 14.639 4 14.057 4 13.2H2zM7.8 17c-.857 0-1.439 0-1.889-.038-.438-.035-.663-.1-.819-.18l-.908 1.782c.485.247 1.002.346 1.564.392C6.298 19 6.976 19 7.8 19v-2zm-5.364-.184a4 4 0 001.748 1.748l.908-1.782a2 2 0 01-.874-.874l-1.782.908zM16.2 5c.857 0 1.439 0 1.889.038.438.035.663.1.819.18l.908-1.782c-.485-.247-1.002-.346-1.564-.392C17.702 3 17.024 3 16.2 3v2zM22 8.8c0-.824 0-1.501-.044-2.052-.046-.562-.145-1.079-.392-1.564l-1.782.908c.08.156.145.38.18.819C20 7.361 20 7.943 20 8.8h2zm-3.092-3.582a2 2 0 01.874.874l1.782-.908a4 4 0 00-1.748-1.748l-.908 1.782zM7.8 3c-.824 0-1.501 0-2.052.044-.562.046-1.079.145-1.564.392l.908 1.782c.156-.08.38-.145.819-.18C6.361 5 6.943 5 7.8 5V3zM4 8.8c0-.857 0-1.439.038-1.889.035-.438.1-.663.18-.819l-1.782-.908c-.247.485-.346 1.002-.392 1.564C2 7.298 2 7.976 2 8.8h2zm.184-5.364a4 4 0 00-1.748 1.748l1.782.908a2 2 0 01.874-.874l-.908-1.782zM20 8.8V20h2V8.8h-2z" fill="#B9BBBE"/></svg>