<svg width="24" height="24" fill="none" xmlns="http://www.w3.org/2000/svg"><path d="M17.498 16.212l-.558.501a.75.75 0 001.116 0l-.558-.501zm-3.056 2.475l.582-.474-.581.474zm6.11 0l-.58-.474.58.474zm-4.067 1.948l.493-.565-.493.565zm.73.515l.212-.72-.212.72zm1.295-.515l-.493-.565.493.565zm-.73.515l.213.72-.212-.72zM2.25 21a.75.75 0 001.5 0h-1.5zm8.644-6.187a.75.75 0 10.212-1.485l-.212 1.485zm7.162.898c-.925-1.03-2.54-1.36-3.775-.356l.946 1.163c.52-.422 1.237-.334 1.713.195l1.116-1.002zm-3.775-.356c-1.19.968-1.378 2.632-.42 3.806l1.163-.948c-.42-.514-.36-1.235.204-1.695l-.947-1.163zm6.853 3.806c.95-1.165.795-2.845-.427-3.812l-.931 1.176c.56.444.622 1.165.196 1.688l1.162.948zm-.427-3.812c-1.242-.983-2.838-.673-3.767.362l1.116 1.002c.47-.523 1.178-.617 1.72-.188l.93-1.176zM13.86 19.16c.438.536 1.416 1.415 2.131 2.04l.986-1.131c-.745-.65-1.614-1.44-1.954-1.857l-1.163.948zm5.142 2.04c.716-.625 1.694-1.504 2.13-2.04l-1.161-.948c-.34.416-1.21 1.207-1.955 1.857l.986 1.13zm-3.01 0c.293.255.606.55 1.01.669l.424-1.44c.008.003-.008.003-.08-.05a6.691 6.691 0 01-.369-.31l-.986 1.13zm2.024-1.131a6.721 6.721 0 01-.369.31c-.072.053-.088.053-.08.05l.425 1.44c.404-.12.716-.414 1.01-.67l-.986-1.13zm-1.014 1.8c.317.093.672.093.99 0l-.425-1.44a.287.287 0 01-.141 0l-.424 1.44zM13.25 7A3.25 3.25 0 0110 10.25v1.5A4.75 4.75 0 0014.75 7h-1.5zM10 10.25A3.25 3.25 0 016.75 7h-1.5A4.75 4.75 0 0010 11.75v-1.5zM6.75 7A3.25 3.25 0 0110 3.75v-1.5A4.75 4.75 0 005.25 7h1.5zM10 3.75A3.25 3.25 0 0113.25 7h1.5A4.75 4.75 0 0010 2.25v1.5zM3.75 21A6.25 6.25 0 0110 14.75v-1.5A7.75 7.75 0 002.25 21h1.5zM10 14.75c.304 0 .602.022.894.063l.212-1.485A7.814 7.814 0 0010 13.25v1.5z" fill="#fff"/></svg>