<svg width="14" height="14" viewBox="0 0 14 14" fill="none" xmlns="http://www.w3.org/2000/svg">
<path d="M12.5 11C12.5 11.2761 12.7239 11.5 13 11.5C13.2761 11.5 13.5 11.2761 13.5 11H12.5ZM0.5 11C0.5 11.2761 0.723858 11.5 1 11.5C1.27614 11.5 1.5 11.2761 1.5 11H0.5ZM2.60982 12.9616L2.51227 13.452L2.60982 12.9616ZM1.03843 11.3902L0.548037 11.4877L1.03843 11.3902ZM4.32052 12.4634L4.81092 12.5609L4.32052 12.4634ZM3.79673 12.9872L3.89427 13.4776L3.79673 12.9872ZM3.96933 8.406L3.74233 8.8515L3.96933 8.406ZM4.26067 8.69734L3.81517 8.92433L4.26067 8.69734ZM1.36401 8.406L1.591 8.8515L1.36401 8.406ZM1.07266 8.69734L1.51817 8.92433L1.07266 8.69734ZM10.2033 12.9872L10.1057 13.4776L10.2033 12.9872ZM9.67948 12.4634L9.18908 12.5609L9.67948 12.4634ZM12.9616 11.3902L13.452 11.4877L12.9616 11.3902ZM11.3902 12.9616L11.4877 13.452L11.3902 12.9616ZM12.636 8.406L12.409 8.8515L12.636 8.406ZM12.9273 8.69734L12.4818 8.92433L12.9273 8.69734ZM10.0307 8.406L10.2577 8.8515L10.0307 8.406ZM9.73933 8.69734L10.1848 8.92433L9.73933 8.69734ZM12.5 7V11H13.5V7H12.5ZM1.5 11V7H0.5V11H1.5ZM7 1.5C10.0376 1.5 12.5 3.96243 12.5 7H13.5C13.5 3.41015 10.5899 0.5 7 0.5V1.5ZM7 0.5C3.41015 0.5 0.5 3.41015 0.5 7H1.5C1.5 3.96243 3.96243 1.5 7 1.5V0.5ZM2.06667 8.83333H3.26667V7.83333H2.06667V8.83333ZM3.83333 9.4V12.1667H4.83333V9.4H3.83333ZM1.5 10.5V9.4H0.5V10.5H1.5ZM3.5 12.5C3.01138 12.5 2.84009 12.4976 2.70736 12.4712L2.51227 13.452C2.76595 13.5024 3.05931 13.5 3.5 13.5V12.5ZM0.5 10.5C0.5 10.9407 0.497578 11.2341 0.548037 11.4877L1.52882 11.2926C1.50242 11.1599 1.5 10.9886 1.5 10.5H0.5ZM2.70736 12.4712C2.11233 12.3528 1.64718 11.8877 1.52882 11.2926L0.548037 11.4877C0.745303 12.4795 1.52055 13.2547 2.51227 13.452L2.70736 12.4712ZM3.83333 12.1667C3.83333 12.2475 3.83327 12.2956 3.83202 12.3319C3.83085 12.3662 3.82903 12.3714 3.83013 12.3658L4.81092 12.5609C4.83576 12.4361 4.83333 12.2976 4.83333 12.1667H3.83333ZM3.5 13.5C3.63092 13.5 3.7694 13.5024 3.89427 13.4776L3.69918 12.4968C3.70472 12.4957 3.69949 12.4975 3.66519 12.4987C3.62895 12.4999 3.58083 12.5 3.5 12.5V13.5ZM3.83013 12.3658C3.81698 12.432 3.7653 12.4836 3.69918 12.4968L3.89427 13.4776C4.35708 13.3855 4.71886 13.0237 4.81092 12.5609L3.83013 12.3658ZM3.26667 8.83333C3.4616 8.83333 3.57773 8.83372 3.66382 8.84076C3.74406 8.84731 3.75326 8.85707 3.74233 8.8515L4.19632 7.96049C4.04278 7.88226 3.88734 7.85569 3.74525 7.84408C3.609 7.83294 3.4451 7.83333 3.26667 7.83333V8.83333ZM4.83333 9.4C4.83333 9.22157 4.83372 9.05767 4.82259 8.92142C4.81098 8.77933 4.78441 8.62388 4.70617 8.47034L3.81517 8.92433C3.8096 8.9134 3.81935 8.9226 3.82591 9.00285C3.83294 9.08894 3.83333 9.20507 3.83333 9.4H4.83333ZM3.74233 8.8515C3.77369 8.86748 3.79919 8.89298 3.81517 8.92433L4.70617 8.47034C4.59432 8.25082 4.41584 8.07234 4.19632 7.96049L3.74233 8.8515ZM2.06667 7.83333C1.88823 7.83333 1.72434 7.83294 1.58809 7.84408C1.446 7.85569 1.29055 7.88226 1.13701 7.96049L1.591 8.8515C1.58007 8.85707 1.58927 8.84731 1.66952 8.84076C1.7556 8.83372 1.87173 8.83333 2.06667 8.83333V7.83333ZM1.5 9.4C1.5 9.20507 1.50039 9.08894 1.50742 9.00285C1.51398 8.9226 1.52373 8.9134 1.51817 8.92433L0.627159 8.47034C0.548928 8.62388 0.522352 8.77933 0.510743 8.92142C0.499611 9.05767 0.5 9.22157 0.5 9.4H1.5ZM1.13701 7.96049C0.917489 8.07234 0.739012 8.25082 0.627159 8.47034L1.51817 8.92433C1.53414 8.89298 1.55964 8.86748 1.591 8.8515L1.13701 7.96049ZM10.7333 8.83333H11.9333V7.83333H10.7333V8.83333ZM12.5 9.4V10.5H13.5V9.4H12.5ZM10.1667 12.1667V9.4H9.16667V12.1667H10.1667ZM10.5 12.5C10.4192 12.5 10.371 12.4999 10.3348 12.4987C10.3005 12.4975 10.2953 12.4957 10.3008 12.4968L10.1057 13.4776C10.2306 13.5024 10.3691 13.5 10.5 13.5V12.5ZM9.16667 12.1667C9.16667 12.2976 9.16425 12.4361 9.18908 12.5609L10.1699 12.3658C10.171 12.3714 10.1691 12.3662 10.168 12.3319C10.1667 12.2956 10.1667 12.2475 10.1667 12.1667H9.16667ZM10.3008 12.4968C10.2347 12.4836 10.183 12.432 10.1699 12.3658L9.18908 12.5609C9.28114 13.0237 9.64292 13.3855 10.1057 13.4776L10.3008 12.4968ZM12.5 10.5C12.5 10.9886 12.4976 11.1599 12.4712 11.2926L13.452 11.4877C13.5024 11.2341 13.5 10.9407 13.5 10.5H12.5ZM10.5 13.5C10.9407 13.5 11.2341 13.5024 11.4877 13.452L11.2926 12.4712C11.1599 12.4976 10.9886 12.5 10.5 12.5V13.5ZM12.4712 11.2926C12.3528 11.8877 11.8877 12.3528 11.2926 12.4712L11.4877 13.452C12.4795 13.2547 13.2547 12.4795 13.452 11.4877L12.4712 11.2926ZM11.9333 8.83333C12.1283 8.83333 12.2444 8.83372 12.3305 8.84076C12.4107 8.84731 12.4199 8.85707 12.409 8.8515L12.863 7.96049C12.7095 7.88226 12.554 7.85569 12.4119 7.84408C12.2757 7.83294 12.1118 7.83333 11.9333 7.83333V8.83333ZM13.5 9.4C13.5 9.22157 13.5004 9.05767 13.4893 8.92142C13.4776 8.77933 13.4511 8.62388 13.3728 8.47034L12.4818 8.92433C12.4763 8.9134 12.486 8.9226 12.4926 9.00285C12.4996 9.08894 12.5 9.20507 12.5 9.4H13.5ZM12.409 8.8515C12.4404 8.86748 12.4659 8.89297 12.4818 8.92433L13.3728 8.47034C13.261 8.25082 13.0825 8.07234 12.863 7.96049L12.409 8.8515ZM10.7333 7.83333C10.5549 7.83333 10.391 7.83294 10.2548 7.84408C10.1127 7.85569 9.95722 7.88226 9.80368 7.96049L10.2577 8.8515C10.2467 8.85707 10.2559 8.84731 10.3362 8.84076C10.4223 8.83372 10.5384 8.83333 10.7333 8.83333V7.83333ZM10.1667 9.4C10.1667 9.20507 10.1671 9.08894 10.1741 9.00285C10.1806 8.9226 10.1904 8.9134 10.1848 8.92433L9.29383 8.47034C9.21559 8.62388 9.18902 8.77933 9.17741 8.92142C9.16628 9.05767 9.16667 9.22157 9.16667 9.4H10.1667ZM9.80368 7.96049C9.58416 8.07234 9.40568 8.25082 9.29383 8.47034L10.1848 8.92433C10.2008 8.89297 10.2263 8.86748 10.2577 8.8515L9.80368 7.96049Z" fill="#B9BBBE"/>
</svg>
