<svg width="14" height="14" viewBox="0 0 14 14" fill="none" xmlns="http://www.w3.org/2000/svg">
<path d="M9 7C9 8.10457 8.10457 9 7 9C5.89543 9 5 8.10457 5 7C5 5.89543 5.89543 5 7 5C8.10457 5 9 5.89543 9 7Z" stroke="#B9BBBE" stroke-linecap="round" stroke-linejoin="round"/>
<path d="M7.60307 1.04003C7.46588 1 7.31059 1 7 1C6.68941 1 6.53412 1 6.39693 1.04003C6.19612 1.09862 6.01874 1.21872 5.88975 1.38341C5.80163 1.49592 5.74396 1.64011 5.62861 1.92848C5.4628 2.34301 5.00262 2.55647 4.57905 2.41533L4.19852 2.28854C3.9286 2.19856 3.79363 2.15357 3.66131 2.14587C3.46693 2.13454 3.27347 2.18021 3.10467 2.27727C2.98977 2.34334 2.88917 2.44394 2.68798 2.64513C2.47414 2.85896 2.36723 2.96588 2.2993 3.08792C2.19951 3.26723 2.1573 3.47289 2.17839 3.67701C2.19275 3.81594 2.2489 3.95633 2.36121 4.2371C2.5371 4.67682 2.36789 5.17919 1.96181 5.42289L1.77681 5.53392C1.49354 5.70388 1.35191 5.78886 1.24903 5.90586C1.15799 6.00939 1.08934 6.13064 1.0474 6.26198C1 6.41039 1 6.57721 1 6.91084C1 7.3059 1 7.50343 1.06308 7.67251C1.11882 7.82191 1.20948 7.95582 1.32749 8.06306C1.46105 8.18442 1.64263 8.25705 2.00578 8.40231C2.37689 8.55076 2.56797 8.96275 2.44158 9.34194L2.29814 9.77224C2.19879 10.0703 2.14912 10.2193 2.1446 10.3657C2.13917 10.5418 2.18033 10.7161 2.26391 10.8712C2.33343 11.0001 2.44452 11.1112 2.66667 11.3333C2.88882 11.5555 2.9999 11.6666 3.12883 11.7361C3.28387 11.8197 3.45822 11.8608 3.63427 11.8554C3.78068 11.8509 3.92971 11.8012 4.22776 11.7019L4.57908 11.5848C5.00262 11.4436 5.4628 11.657 5.62861 12.0715C5.74396 12.3599 5.80163 12.5041 5.88975 12.6166C6.01874 12.7813 6.19612 12.9014 6.39693 12.96C6.53412 13 6.68941 13 7 13C7.31059 13 7.46588 13 7.60307 12.96C7.80388 12.9014 7.98126 12.7813 8.11025 12.6166C8.19837 12.5041 8.25604 12.3599 8.37139 12.0715C8.53719 11.657 8.99738 11.4436 9.42089 11.5848L9.77196 11.7019C10.07 11.8013 10.219 11.8509 10.3655 11.8555C10.5415 11.8609 10.7159 11.8197 10.8709 11.7361C10.9998 11.6666 11.1109 11.5555 11.3331 11.3334C11.5552 11.1112 11.6663 11.0002 11.7358 10.8712C11.8194 10.7162 11.8606 10.5418 11.8551 10.3658C11.8506 10.2194 11.8009 10.0703 11.7016 9.77229L11.5582 9.34225C11.4318 8.96292 11.623 8.55078 11.9942 8.40231C12.3574 8.25705 12.5389 8.18442 12.6725 8.06306C12.7905 7.95582 12.8812 7.82191 12.9369 7.67251C13 7.50343 13 7.3059 13 6.91084C13 6.57721 13 6.41039 12.9526 6.26198C12.9107 6.13064 12.842 6.00939 12.751 5.90586C12.6481 5.78886 12.5065 5.70388 12.2232 5.53392L12.038 5.42277C11.6319 5.17912 11.4626 4.67676 11.6385 4.23705C11.7508 3.95628 11.807 3.81588 11.8213 3.67696C11.8424 3.47284 11.8002 3.26718 11.7004 3.08787C11.6325 2.96583 11.5256 2.85891 11.3117 2.64508C11.1106 2.44389 11.01 2.34329 10.8951 2.27722C10.7263 2.18016 10.5328 2.13449 10.3384 2.14582C10.2061 2.15352 10.0711 2.19851 9.8012 2.28849L9.42092 2.41525C8.99738 2.55643 8.5372 2.343 8.37139 1.92848C8.25604 1.6401 8.19837 1.49592 8.11025 1.38341C7.98126 1.21872 7.80388 1.09862 7.60307 1.04003Z" stroke="#B9BBBE" stroke-linecap="round" stroke-linejoin="round"/>
</svg>
